# MagicaVoxel @ Ephtracy

# group
o 

# material
mtllib button_up_sticky.mtl
usemtl palette

# normals
vn -1 0 0
vn 1 0 0
vn 0 0 1
vn 0 0 -1
vn 0 -1 0
vn 0 1 0

# texcoords
vt 0.0878906 0.5
vt 0.173828 0.5
vt 0.939453 0.5

# verts
v -0.8 0 0.8
v -0.8 0 -0.9
v -0.8 0.1 0.8
v -0.8 0.1 -0.9
v -0.7 0.1 0.7
v -0.7 0.1 -0.8
v -0.7 0.2 0.7
v -0.7 0.2 -0.8
v 0.8 0.1 0.7
v 0.8 0.1 -0.8
v 0.8 0.2 0.7
v 0.8 0.2 -0.8
v 0.9 0 0.8
v 0.9 0 -0.9
v 0.9 0.1 0.8
v 0.9 0.1 -0.9
v -0.8 0 0.8
v -0.8 0.1 0.8
v 0.9 0 0.8
v 0.9 0.1 0.8
v -0.7 0.1 0.7
v -0.7 0.2 0.7
v 0.8 0.1 0.7
v 0.8 0.2 0.7
v -0.7 0.1 -0.8
v -0.7 0.2 -0.8
v 0.8 0.1 -0.8
v 0.8 0.2 -0.8
v -0.8 0 -0.9
v -0.8 0.1 -0.9
v 0.9 0 -0.9
v 0.9 0.1 -0.9
v -0.8 0 0.8
v 0.9 0 0.8
v -0.8 0 -0.9
v 0.9 0 -0.9
v -0.8 0.1 0.8
v 0.9 0.1 0.8
v -0.7 0.1 0.7
v 0.8 0.1 0.7
v -0.7 0.1 -0.8
v 0.8 0.1 -0.8
v -0.8 0.1 -0.9
v 0.9 0.1 -0.9
v -0.7 0.2 0.7
v 0.8 0.2 0.7
v -0.5 0.2 0.5
v 0.6 0.2 0.5
v -0.4 0.2 0.4
v 0.5 0.2 0.4
v -0.3 0.2 0.3
v -0.2 0.2 0.3
v 0.3 0.2 0.3
v 0.4 0.2 0.3
v -0.3 0.2 0.2
v -0.2 0.2 0.2
v -0.1 0.2 0.2
v 0 0.2 0.2
v 0.1 0.2 0.2
v 0.2 0.2 0.2
v 0.3 0.2 0.2
v 0.4 0.2 0.2
v -0.2 0.2 0.1
v -0.1 0.2 0.1
v 0 0.2 0.1
v 0.1 0.2 0.1
v 0.2 0.2 0.1
v 0.3 0.2 0.1
v -0.2 0.2 0
v -0.1 0.2 0
v 0 0.2 0
v 0.1 0.2 0
v 0.2 0.2 0
v 0.3 0.2 0
v -0.2 0.2 -0.1
v -0.1 0.2 -0.1
v 0 0.2 -0.1
v 0.1 0.2 -0.1
v 0.2 0.2 -0.1
v 0.3 0.2 -0.1
v -0.2 0.2 -0.2
v -0.1 0.2 -0.2
v 0 0.2 -0.2
v 0.1 0.2 -0.2
v 0.2 0.2 -0.2
v 0.3 0.2 -0.2
v -0.3 0.2 -0.3
v -0.2 0.2 -0.3
v -0.1 0.2 -0.3
v 0 0.2 -0.3
v 0.1 0.2 -0.3
v 0.2 0.2 -0.3
v 0.3 0.2 -0.3
v 0.4 0.2 -0.3
v -0.3 0.2 -0.4
v -0.2 0.2 -0.4
v 0.3 0.2 -0.4
v 0.4 0.2 -0.4
v -0.4 0.2 -0.5
v 0.5 0.2 -0.5
v -0.5 0.2 -0.6
v 0.6 0.2 -0.6
v -0.7 0.2 -0.8
v 0.8 0.2 -0.8

# faces
f 3/3/1 2/3/1 1/3/1
f 4/3/1 2/3/1 3/3/1
f 7/2/1 6/2/1 5/2/1
f 8/2/1 6/2/1 7/2/1
f 9/2/2 10/2/2 11/2/2
f 11/2/2 10/2/2 12/2/2
f 13/3/2 14/3/2 15/3/2
f 15/3/2 14/3/2 16/3/2
f 19/3/3 18/3/3 17/3/3
f 20/3/3 18/3/3 19/3/3
f 23/2/3 22/2/3 21/2/3
f 24/2/3 22/2/3 23/2/3
f 25/2/4 26/2/4 27/2/4
f 27/2/4 26/2/4 28/2/4
f 29/3/4 30/3/4 31/3/4
f 31/3/4 30/3/4 32/3/4
f 35/3/5 34/3/5 33/3/5
f 36/3/5 34/3/5 35/3/5
f 37/3/6 38/3/6 39/3/6
f 39/3/6 38/3/6 40/3/6
f 37/3/6 39/3/6 41/3/6
f 40/3/6 38/3/6 42/3/6
f 37/3/6 41/3/6 43/3/6
f 41/3/6 42/3/6 43/3/6
f 42/3/6 38/3/6 44/3/6
f 43/3/6 42/3/6 44/3/6
f 45/2/6 46/2/6 47/2/6
f 47/2/6 46/2/6 48/2/6
f 47/1/6 48/1/6 49/1/6
f 49/1/6 48/1/6 50/1/6
f 49/2/6 50/2/6 51/2/6
f 51/2/6 50/2/6 52/2/6
f 52/2/6 50/2/6 53/2/6
f 53/2/6 50/2/6 54/2/6
f 49/2/6 51/2/6 55/2/6
f 51/1/6 52/1/6 55/1/6
f 52/2/6 53/2/6 56/2/6
f 55/1/6 52/1/6 56/1/6
f 56/2/6 53/2/6 57/2/6
f 57/2/6 53/2/6 58/2/6
f 58/2/6 53/2/6 59/2/6
f 59/2/6 53/2/6 60/2/6
f 53/1/6 54/1/6 61/1/6
f 60/2/6 53/2/6 61/2/6
f 54/2/6 50/2/6 62/2/6
f 61/1/6 54/1/6 62/1/6
f 55/2/6 56/2/6 63/2/6
f 56/1/6 57/1/6 63/1/6
f 57/2/6 58/2/6 64/2/6
f 63/1/6 57/1/6 64/1/6
f 58/1/6 59/1/6 65/1/6
f 64/2/6 58/2/6 65/2/6
f 59/2/6 60/2/6 66/2/6
f 65/1/6 59/1/6 66/1/6
f 60/1/6 61/1/6 67/1/6
f 66/2/6 60/2/6 67/2/6
f 61/2/6 62/2/6 68/2/6
f 67/1/6 61/1/6 68/1/6
f 55/2/6 63/2/6 69/2/6
f 63/2/6 64/2/6 69/2/6
f 64/1/6 65/1/6 70/1/6
f 69/2/6 64/2/6 70/2/6
f 65/2/6 66/2/6 71/2/6
f 70/1/6 65/1/6 71/1/6
f 66/1/6 67/1/6 72/1/6
f 71/2/6 66/2/6 72/2/6
f 67/2/6 68/2/6 73/2/6
f 72/1/6 67/1/6 73/1/6
f 68/2/6 62/2/6 74/2/6
f 73/2/6 68/2/6 74/2/6
f 69/1/6 70/1/6 75/1/6
f 55/2/6 69/2/6 75/2/6
f 70/2/6 71/2/6 76/2/6
f 75/1/6 70/1/6 76/1/6
f 71/1/6 72/1/6 77/1/6
f 76/2/6 71/2/6 77/2/6
f 72/2/6 73/2/6 78/2/6
f 77/1/6 72/1/6 78/1/6
f 73/1/6 74/1/6 79/1/6
f 78/2/6 73/2/6 79/2/6
f 74/2/6 62/2/6 80/2/6
f 79/1/6 74/1/6 80/1/6
f 55/2/6 75/2/6 81/2/6
f 75/2/6 76/2/6 81/2/6
f 76/1/6 77/1/6 82/1/6
f 81/2/6 76/2/6 82/2/6
f 77/2/6 78/2/6 83/2/6
f 82/1/6 77/1/6 83/1/6
f 78/1/6 79/1/6 84/1/6
f 83/2/6 78/2/6 84/2/6
f 79/2/6 80/2/6 85/2/6
f 84/1/6 79/1/6 85/1/6
f 80/2/6 62/2/6 86/2/6
f 85/2/6 80/2/6 86/2/6
f 49/2/6 55/2/6 87/2/6
f 55/2/6 81/2/6 87/2/6
f 81/1/6 82/1/6 88/1/6
f 87/2/6 81/2/6 88/2/6
f 82/2/6 83/2/6 89/2/6
f 88/1/6 82/1/6 89/1/6
f 83/1/6 84/1/6 90/1/6
f 89/2/6 83/2/6 90/2/6
f 84/2/6 85/2/6 91/2/6
f 90/1/6 84/1/6 91/1/6
f 85/1/6 86/1/6 92/1/6
f 91/2/6 85/2/6 92/2/6
f 86/2/6 62/2/6 93/2/6
f 92/1/6 86/1/6 93/1/6
f 62/2/6 50/2/6 94/2/6
f 93/2/6 62/2/6 94/2/6
f 87/1/6 88/1/6 95/1/6
f 49/2/6 87/2/6 95/2/6
f 91/2/6 92/2/6 96/2/6
f 95/1/6 88/1/6 96/1/6
f 92/2/6 93/2/6 96/2/6
f 88/2/6 89/2/6 96/2/6
f 90/2/6 91/2/6 96/2/6
f 89/2/6 90/2/6 96/2/6
f 93/1/6 94/1/6 97/1/6
f 96/2/6 93/2/6 97/2/6
f 94/2/6 50/2/6 98/2/6
f 97/1/6 94/1/6 98/1/6
f 47/1/6 49/1/6 99/1/6
f 96/2/6 97/2/6 99/2/6
f 97/2/6 98/2/6 99/2/6
f 49/2/6 95/2/6 99/2/6
f 95/2/6 96/2/6 99/2/6
f 98/2/6 50/2/6 100/2/6
f 99/2/6 98/2/6 100/2/6
f 50/1/6 48/1/6 100/1/6
f 45/2/6 47/2/6 101/2/6
f 47/1/6 99/1/6 101/1/6
f 99/1/6 100/1/6 101/1/6
f 100/1/6 48/1/6 102/1/6
f 101/1/6 100/1/6 102/1/6
f 48/2/6 46/2/6 102/2/6
f 45/2/6 101/2/6 103/2/6
f 101/2/6 102/2/6 103/2/6
f 102/2/6 46/2/6 104/2/6
f 103/2/6 102/2/6 104/2/6
